<svg width="512" height="512" viewBox="0 0 512 512" fill="none" xmlns="http://www.w3.org/2000/svg">
<rect width="512" height="512" fill="#222436"/>
<path d="M245.333 293C245.333 290.239 247.572 288 250.333 288H261.667C264.428 288 266.667 290.239 266.667 293V304.334C266.667 307.095 264.428 309.334 261.667 309.334H250.333C247.572 309.334 245.333 307.095 245.333 304.334V293ZM245.333 207.667C245.333 204.905 247.572 202.667 250.333 202.667H261.667C264.428 202.667 266.667 204.905 266.667 207.667V261.667C266.667 264.428 264.428 266.667 261.667 266.667H250.333C247.572 266.667 245.333 264.428 245.333 261.667V207.667ZM255.893 149.333C197.013 149.333 149.333 197.12 149.333 256C149.333 314.88 197.013 362.667 255.893 362.667C314.88 362.667 362.667 314.88 362.667 256C362.667 197.12 314.88 149.333 255.893 149.333ZM256 341.334C208.853 341.334 170.667 303.147 170.667 256C170.667 208.854 208.853 170.667 256 170.667C303.147 170.667 341.333 208.854 341.333 256C341.333 303.147 303.147 341.334 256 341.334Z" fill="#C8C8CD"/>
</svg>
