<svg width="562" height="562" viewBox="0 0 562 562" fill="none" xmlns="http://www.w3.org/2000/svg">
<circle cx="281" cy="281" r="281" fill="#DFDFE8"/>
<circle cx="281" cy="281" r="256" fill="#222436"/>
<path d="M372.875 256.5C364.375 213.375 326.5 181 281 181C244.875 181 213.5 201.5 197.875 231.5C160.25 235.5 131 267.375 131 306C131 347.375 164.625 381 206 381H368.5C403 381 431 353 431 318.5C431 285.5 405.375 258.75 372.875 256.5Z" fill="url(#paint0_linear)"/>
<g clip-path="url(#clip0)">
<g filter="url(#filter0_d)">
<path d="M372.875 256.5C364.375 213.375 326.5 181 281 181C244.875 181 213.625 201.5 198 231.5C160.375 235.5 131 267.25 131 306C131 347.375 164.625 381 206 381H368.5C403 381 431 353 431 318.5C431 285.5 405.375 258.75 372.875 256.5ZM368.5 356H208.125C182 356 158.75 336.875 156.25 310.875C153.375 281.125 176.75 256 206 256C230 256 250.125 273 254.875 295.625C256.125 301.625 261.125 306 267.125 306C274.75 306 281 299.125 279.5 291.625C274.125 263.625 253.125 241.25 225.875 233.75C239.625 215.5 262 204.125 287 206.25C323 209.375 349.625 241.5 349.625 277.625V281H366.75C384.875 281 401.625 293.125 405.125 311C410 334.875 391.625 356 368.5 356Z" fill="#DFDFE8"/>
</g>
</g>
<defs>
<filter id="filter0_d" x="121" y="171" width="320" height="220" filterUnits="userSpaceOnUse" color-interpolation-filters="sRGB">
<feFlood flood-opacity="0" result="BackgroundImageFix"/>
<feColorMatrix in="SourceAlpha" type="matrix" values="0 0 0 0 0 0 0 0 0 0 0 0 0 0 0 0 0 0 127 0"/>
<feOffset/>
<feGaussianBlur stdDeviation="5"/>
<feColorMatrix type="matrix" values="0 0 0 0 0 0 0 0 0 0 0 0 0 0 0 0 0 0 0.25 0"/>
<feBlend mode="normal" in2="BackgroundImageFix" result="effect1_dropShadow"/>
<feBlend mode="normal" in="SourceGraphic" in2="effect1_dropShadow" result="shape"/>
</filter>
<linearGradient id="paint0_linear" x1="205" y1="186" x2="412.5" y2="389.5" gradientUnits="userSpaceOnUse">
<stop stop-color="#84849A" stop-opacity="0.84"/>
<stop offset="1" stop-color="#272740"/>
</linearGradient>
<clipPath id="clip0">
<rect width="300" height="300" fill="white" transform="translate(131 131)"/>
</clipPath>
</defs>
</svg>
